<svg width="224" height="29" viewBox="0 0 224 29" fill="none" xmlns="http://www.w3.org/2000/svg">
<mask id="mask0_2082_94" style="mask-type:luminance" maskUnits="userSpaceOnUse" x="0" y="0" width="224" height="29">
<path d="M224 0H0V28.0361H224V0Z" fill="white"/>
</mask>
<g mask="url(#mask0_2082_94)">
<path d="M25.1647 28.0361H31.9642C32.3006 28.0361 32.5957 27.806 32.6754 27.4754L39.0884 0.876497C39.1946 0.43087 38.8581 0 38.3976 0H30.8132C30.4768 0 30.1876 0.236094 30.1167 0.563674L24.4505 27.1537C24.3531 27.6082 24.7014 28.0361 25.1647 28.0361Z" fill="url(#paint0_linear_2082_94)"/>
<path opacity="0.25" d="M24.4535 27.3515L30.1227 0.761402C30.1935 0.433821 30.4827 0.197729 30.8192 0.197729H38.4036C38.7695 0.197729 39.053 0.469237 39.1031 0.805671C39.162 0.383653 38.8375 0 38.4036 0H30.8192C30.4827 0 30.1935 0.233143 30.1227 0.563674L24.4565 27.1537C24.4387 27.2393 24.4387 27.3249 24.4506 27.4046C24.4506 27.3869 24.4506 27.3692 24.4565 27.3515H24.4535Z" fill="white"/>
<path d="M30.0489 13.3809C26.9679 6.6404 22.1486 5.6311 19.5516 5.6311C16.9546 5.6311 12.1353 6.63746 9.05426 13.3809C7.4016 16.9961 6.49264 21.777 6.41298 27.2484C6.40706 27.6823 6.75236 28.0364 7.18618 28.0364H13.9237C14.3428 28.0364 14.6881 27.7 14.694 27.2809C14.7648 23.043 15.4288 19.3511 16.5856 16.8219C17.468 14.8919 18.4656 13.9121 19.5545 13.9121C20.6435 13.9121 21.6381 14.8919 22.5234 16.8219C23.6832 19.3599 24.3502 23.0755 24.4151 27.3399C24.421 27.7265 24.7397 28.0364 25.1264 28.0364H31.9849C32.3803 28.0364 32.702 27.7147 32.6961 27.3193C32.6223 21.8183 31.7134 17.0108 30.0548 13.3809H30.0489Z" fill="url(#paint1_linear_2082_94)"/>
<path opacity="0.4" d="M9.05431 13.5815C12.1353 6.83812 16.9546 5.83176 19.5516 5.83176C22.1487 5.83176 26.9679 6.83812 30.049 13.5815C31.6928 17.1761 32.5988 21.9274 32.6873 27.3635C32.6873 27.3488 32.6902 27.337 32.6902 27.3222C32.6165 21.8212 31.7075 17.0138 30.049 13.3838C26.9679 6.64039 22.1487 5.63403 19.5516 5.63403C16.9546 5.63403 12.1353 6.64039 9.05431 13.3838C7.40165 16.999 6.49268 21.7799 6.41302 27.2514C6.41302 27.2661 6.41597 27.2809 6.41597 27.2956C6.51038 21.8891 7.4164 17.1643 9.05137 13.5845L9.05431 13.5815Z" fill="white"/>
<path d="M13.9679 28.0361H7.1271C6.79954 28.0361 6.51329 27.8119 6.43654 27.4931L0.0206909 0.876497C-0.0885024 0.43087 0.250882 0 0.711264 0H8.29579C8.63222 0 8.92142 0.236094 8.99224 0.563674L14.6644 27.1774C14.7589 27.62 14.4224 28.0361 13.9679 28.0361Z" fill="url(#paint2_linear_2082_94)"/>
<path opacity="0.5" d="M0.705599 0.197729H8.2901C8.62653 0.197729 8.91576 0.433821 8.98658 0.761402L14.6588 27.3751C14.6617 27.3928 14.6588 27.4075 14.6646 27.4252C14.6764 27.3456 14.6794 27.2629 14.6588 27.1774L8.98658 0.563674C8.91576 0.233143 8.62653 0 8.2901 0H0.705599C0.271778 0 -0.0499 0.386604 0.00617242 0.805671C0.0563422 0.472188 0.342606 0.197729 0.705599 0.197729Z" fill="white"/>
<path d="M65.5044 21.0681V25.1466H50.9844V3.43188H55.2284V21.0651H65.5072L65.5044 21.0681Z" fill="#202936"/>
<path d="M73.7264 3.43188V25.1437H69.4824V3.43188H73.7264Z" fill="#202936"/>
<path d="M81.9806 10.1281V25.1437H77.7103V3.43188H82.863L90.8551 18.533V3.43188H95.1253V25.1437H89.9166L81.9806 10.1281Z" fill="#202936"/>
<path d="M114.396 21.0681V25.1466H99.1033V3.43188H114.396V7.51041H103.347V11.5594H112.357V15.6379H103.347V21.0651H114.396V21.0681Z" fill="#202936"/>
<path d="M143.678 3.43188L141.898 14.2479C140.488 10.8806 138.233 9.0273 135.214 9.0273C132.195 9.0273 129.94 10.8806 128.53 14.2479L126.75 3.43188H122.312L126.346 25.1437H130.551C130.551 18.0254 132.301 13.2534 135.214 13.2534C138.127 13.2534 139.877 18.0284 139.877 25.1437H144.082L148.116 3.43188H143.678Z" fill="#202936"/>
<path d="M150.206 12.4159C150.206 7.2366 152.824 3.07544 158.942 3.07544C165.059 3.07544 167.677 7.2366 167.677 12.4159V16.1904C167.677 21.3432 165.059 25.5044 158.942 25.5044C152.824 25.5044 150.206 21.3432 150.206 16.1904V12.4159ZM163.351 12.5812C163.351 9.13714 162.194 7.15397 158.942 7.15397C155.689 7.15397 154.532 9.13714 154.532 12.5812V16.0252C154.532 19.4426 155.689 21.4258 158.942 21.4258C162.194 21.4258 163.351 19.4426 163.351 16.0252V12.5812Z" fill="#202936"/>
<path d="M187.32 9.92151C187.32 6.43915 184.885 3.6001 181.828 3.44074V3.43188H171.089V25.1437H175.332V16.4082H177.959L182.58 25.1437H187.317L182.634 16.2931C185.298 15.7235 187.317 13.0881 187.317 9.91857L187.32 9.92151ZM180.872 12.3503H175.335V7.49271H180.872C182.037 7.49271 182.982 8.57872 182.982 9.92151C182.982 11.2643 182.037 12.3503 180.872 12.3503Z" fill="#202936"/>
<path d="M216.215 25.5046C210.687 25.5046 208.02 22.2524 208.02 18.3126H212.502C212.585 20.5997 214.291 21.4261 216.215 21.4261C218.717 21.4261 219.679 20.2957 219.679 19.195C219.679 17.982 218.909 17.3475 217.203 16.7426L213.739 15.503C209.97 14.1514 208.678 12.3335 208.651 9.33214C208.624 5.77895 211.263 3.07861 216.023 3.07861C221.58 3.07861 223.861 6.63181 223.861 10.0227H219.378C219.131 7.92739 217.894 7.15714 216.023 7.15714C214.016 7.15714 212.969 8.12217 212.969 9.33509C212.969 10.6572 213.96 11.0704 216.103 11.8436L219.349 13.0005C222.566 14.1573 223.997 16.2527 223.997 19.1182C223.997 22.7541 221.164 25.5105 216.212 25.5105L216.215 25.5046Z" fill="#202936"/>
<path d="M207.078 3.43188H202.147L196.663 12.1674H195.09V3.43188H190.847V25.1466H195.09V16.4111H196.663L202.427 25.1466H207.358L200.196 14.2893L207.078 3.43188Z" fill="#202936"/>
</g>
<defs>
<linearGradient id="paint0_linear_2082_94" x1="24.8843" y1="27.9801" x2="38.0437" y2="-0.239045" gradientUnits="userSpaceOnUse">
<stop stop-color="#0563EA"/>
<stop offset="1" stop-color="#6040FF"/>
</linearGradient>
<linearGradient id="paint1_linear_2082_94" x1="6.41298" y1="16.8338" x2="32.6902" y2="16.8338" gradientUnits="userSpaceOnUse">
<stop stop-color="#00BDFF"/>
<stop offset="1" stop-color="#0092FF"/>
</linearGradient>
<linearGradient id="paint2_linear_2082_94" x1="1.06541" y1="-0.239044" x2="14.2276" y2="27.9889" gradientUnits="userSpaceOnUse">
<stop stop-color="#00E255"/>
<stop offset="1" stop-color="#00CE62"/>
</linearGradient>
</defs>
</svg>
