<svg width="28" height="35" viewBox="0 0 28 35" fill="none" xmlns="http://www.w3.org/2000/svg">
<path d="M21.6182 9.85C21.3622 9.85 21.1489 9.74333 20.9783 9.53C20.8503 9.274 20.8929 9.018 21.1063 8.762L25.6503 3.834C25.8636 3.62067 25.9703 3.34333 25.9703 3.002C25.9703 2.618 25.7783 2.27667 25.3943 1.978C25.0529 1.67934 24.6476 1.53 24.1782 1.53C23.7516 1.53 23.3036 1.722 22.8342 2.106C22.3223 2.53267 21.5329 3.34333 20.4663 4.538C19.3996 5.73267 18.1836 7.162 16.8183 8.826C16.8183 8.86867 16.7542 8.93267 16.6262 9.018C16.4982 9.06067 16.4129 9.082 16.3702 9.082H11.3142C10.8876 9.082 10.6742 8.86867 10.6742 8.442C10.6742 8.01534 10.8876 7.802 11.3142 7.802H16.0502C17.3302 6.18067 18.5036 4.794 19.5702 3.642C20.6369 2.44733 21.4263 1.61533 21.9382 1.146C22.5782 0.548667 23.3249 0.25 24.1782 0.25C25.0316 0.25 25.7569 0.527334 26.3543 1.082C26.9516 1.594 27.2503 2.21267 27.2503 2.938C27.2503 3.578 27.0369 4.13267 26.6103 4.602C26.5249 4.73 26.2263 5.07133 25.7143 5.626C25.2449 6.18067 24.6689 6.82067 23.9862 7.546C23.3036 8.27133 22.6636 8.97533 22.0662 9.658C21.9382 9.786 21.7889 9.85 21.6182 9.85ZM0.618247 23.75C0.234247 23.75 0.250253 23.374 0.250253 22.99C0.25025 22.606 5.25025 21.7625 5.93825 21.5105C6.57825 21.0725 8.32758 18.5113 9.77825 16.634C11.2289 14.7567 12.6796 12.794 14.1302 10.746C14.2582 10.5753 14.4076 10.49 14.5782 10.49C14.8342 10.49 15.0262 10.618 15.1542 10.874C15.3249 11.0873 15.3249 11.3007 15.1542 11.514C13.7036 13.562 12.2529 15.546 10.8022 17.466C9.35158 19.3433 8.00758 21.0073 6.77025 22.458C6.59958 22.6287 0.83158 23.75 0.618247 23.75ZM13.3622 30.65C11.7836 30.65 10.6102 30.0313 9.84225 28.794C9.67158 28.4527 9.52225 28.1113 9.39425 27.77C9.26625 27.386 9.20225 26.9807 9.20225 26.554C9.20225 25.8287 9.37291 24.9967 9.71425 24.058C10.0982 23.0767 10.6956 22.0313 11.5062 20.922C11.9756 20.2393 12.6582 19.3647 13.5542 18.298C14.4502 17.1887 15.3889 16.0367 16.3702 14.842C17.3942 13.6047 18.2689 12.474 18.9943 11.45C18.9943 11.4073 19.0583 11.3647 19.1863 11.322C19.3569 11.2367 19.4636 11.194 19.5063 11.194H25.0103C25.4369 11.194 25.6503 11.4073 25.6503 11.834C25.6503 12.2607 25.4369 12.474 25.0103 12.474H19.8263C19.1009 13.498 18.2476 14.6073 17.2663 15.802C16.3276 16.954 15.4102 18.0633 14.5142 19.13C13.6609 20.1967 12.9996 21.05 12.5302 21.69C11.8049 22.7567 11.2929 23.6953 10.9942 24.506C10.6956 25.274 10.5462 25.9567 10.5462 26.554C10.5462 27.194 10.6742 27.706 10.9302 28.09C11.4422 28.9433 12.2529 29.37 13.3622 29.37C14.4716 29.37 15.6023 29.0073 16.7542 28.282C17.9489 27.514 19.1223 26.554 20.2743 25.402C21.4263 24.2073 22.4716 22.97 23.4102 21.69C23.5382 21.5193 23.7089 21.434 23.9223 21.434C24.1356 21.434 24.3276 21.5407 24.4983 21.754C24.6689 21.9673 24.6476 22.202 24.4342 22.458C22.8556 24.6767 21.0636 26.5967 19.0583 28.218C17.0529 29.8393 15.1542 30.65 13.3622 30.65ZM11.3142 34.49C9.65025 34.49 8.30625 34.0207 7.28225 33.082C6.30092 32.1007 5.85292 30.714 5.93825 28.922C5.93825 28.538 6.15158 28.346 6.57825 28.346C6.74892 28.346 6.89825 28.41 7.02625 28.538C7.19692 28.6233 7.26092 28.7727 7.21825 28.986C7.17558 30.1807 7.51692 31.2047 8.24225 32.058C9.01025 32.8687 10.1196 33.274 11.5702 33.274C12.5942 33.274 13.7676 33.018 15.0902 32.506C16.4556 31.9513 17.9276 31.0767 19.5063 29.882C19.5916 29.7967 19.7196 29.754 19.8903 29.754C20.3169 29.754 20.5303 29.9673 20.5303 30.394C20.5303 30.6073 20.4449 30.778 20.2743 30.906C18.6956 32.1007 17.1169 32.9967 15.5382 33.594C14.0022 34.1913 12.5942 34.49 11.3142 34.49Z" fill="black" stroke="black" stroke-width="0.5"/>
<path d="M13.2503 23.75L16.2503 25.75" stroke="black" stroke-width="1.8" stroke-linecap="round"/>
</svg>
